<?xml version="1.0" encoding="UTF-8" standalone="no"?>
<!DOCTYPE svg PUBLIC "-//W3C//DTD SVG 1.1//EN" "http://www.w3.org/Graphics/SVG/1.1/DTD/svg11.dtd">
<svg width="100%" height="100%" viewBox="0 0 237 355" version="1.1" xmlns="http://www.w3.org/2000/svg" xmlns:xlink="http://www.w3.org/1999/xlink" xml:space="preserve" xmlns:serif="http://www.serif.com/" style="fill-rule:evenodd;clip-rule:evenodd;stroke-linecap:round;stroke-linejoin:round;stroke-miterlimit:1.5;">
    <g transform="matrix(1,0,0,1,-261,-2)">
        <g transform="matrix(9.84616,0,0,9.88392,-44464,-48934.8)">
            <rect id="g" x="4542.43" y="4951.22" width="23.958" height="35.81" style="fill:none;"/>
            <g id="g1" serif:id="g">
                <g transform="matrix(0.0999753,0,0,-0.0453448,4519.02,4952.76)">
                    <path d="M244.242,8.259C243.733,8.759 414.36,9.515 465.272,9.515" style="fill:none;stroke:black;stroke-width:8.17px;"/>
                </g>
                <g transform="matrix(0.101562,0,0,0.101174,4518.47,4951.22)">
                    <path d="M281.171,12.46C281.171,15.508 262.57,59.529 254.318,122.732C245.548,189.907 241.658,235.012 255.964,297.058C260.082,314.919 272.975,341.636 303.56,340.332C334.033,339.033 353.733,324.113 366.437,289.423C376.844,261.007 402.591,242.586 424.529,241.034C462.235,238.365 465.199,262.219 463.46,285.323C459.874,332.987 419.002,342.144 419.402,342.144" style="fill:none;stroke:black;stroke-width:6.25px;"/>
                </g>
            </g>
        </g>
    </g>
</svg>
