<?xml version="1.0" encoding="UTF-8" standalone="no"?>
<!DOCTYPE svg PUBLIC "-//W3C//DTD SVG 1.1//EN" "http://www.w3.org/Graphics/SVG/1.1/DTD/svg11.dtd">
<svg width="100%" height="100%" viewBox="0 0 237 355" version="1.1" xmlns="http://www.w3.org/2000/svg" xmlns:xlink="http://www.w3.org/1999/xlink" xml:space="preserve" xmlns:serif="http://www.serif.com/" style="fill-rule:evenodd;clip-rule:evenodd;stroke-linecap:round;stroke-linejoin:round;stroke-miterlimit:1.5;">
    <g transform="matrix(1,0,0,1,-758,-1)">
        <g transform="matrix(9.84616,0,0,9.88392,-43966.8,-48935.7)">
            <rect id="l" x="4542.43" y="4951.22" width="23.958" height="35.81" style="fill:none;"/>
            <g id="l1" serif:id="l">
                <g transform="matrix(0.101562,0,0,0.133517,4470.01,4940.26)">
                    <path d="M729.5,336.815C729.5,317.743 727.663,256.542 730.998,253.149C735.391,248.681 931.365,250.122 934.38,253.136C935.923,254.679 932.068,333.432 932.068,335.353" style="fill:none;stroke:black;stroke-width:5.34px;"/>
                </g>
                <g transform="matrix(0.101562,0,0,0.0890799,4470.01,4951.27)">
                    <path d="M743.166,234.525C736.795,228.155 721.28,27.05 799.2,16.612C862.951,8.072 880.007,75.373 874.452,114.316C865.323,178.308 872.463,219.736 889.476,230.019C917.791,247.134 946.981,206.153 917.909,185.871" style="fill:none;stroke:black;stroke-width:6.63px;"/>
                </g>
            </g>
        </g>
    </g>
</svg>
