<?xml version="1.0" encoding="UTF-8" standalone="no"?>
<!DOCTYPE svg PUBLIC "-//W3C//DTD SVG 1.1//EN" "http://www.w3.org/Graphics/SVG/1.1/DTD/svg11.dtd">
<svg width="100%" height="100%" viewBox="0 0 237 355" version="1.1" xmlns="http://www.w3.org/2000/svg" xmlns:xlink="http://www.w3.org/1999/xlink" xml:space="preserve" xmlns:serif="http://www.serif.com/" style="fill-rule:evenodd;clip-rule:evenodd;stroke-linecap:round;stroke-linejoin:round;stroke-miterlimit:1.5;">
    <g transform="matrix(1,0,0,1,-758,-787)">
        <g transform="matrix(9.84616,0,0,9.88392,-43966.8,-48150.4)">
            <rect id="la" x="4542.43" y="4951.22" width="23.958" height="35.81" style="fill:none;"/>
            <g id="la1" serif:id="la">
                <g transform="matrix(0.0502257,0,0,0.0890799,4507.43,4951.27)">
                    <path d="M743.166,234.525C737.934,229.293 696.95,85.86 753.031,36.293C766.541,24.352 785.276,18.477 799.2,16.612C862.951,8.072 892.898,79.572 874.452,114.316C838.292,182.424 843.005,224.222 889.476,230.019C922.308,234.115 946.981,206.153 917.909,185.871" style="fill:none;stroke:black;stroke-width:8.75px;"/>
                </g>
                <g transform="matrix(0.090115,0,0,0.101174,4502.05,4871.7)">
                    <path d="M595.097,796.59C595.097,813.501 596.501,927.411 597.912,1016.96C598.073,1027.19 598.234,1037.1 598.393,1046.51C599.184,1093.25 599.925,1127.68 600.361,1127.68C604.646,1127.68 702.534,1134.94 704.878,1061.2C706.926,996.769 469.967,1011.52 469.967,1011.52C469.967,1011.52 465.558,1125.5 464.481,1128.47" style="fill:none;stroke:black;stroke-width:6.61px;"/>
                </g>
                <g transform="matrix(0.141782,0,0,0.141174,4470.02,4836.84)">
                    <path d="M657.527,869.288C632.437,854.89 599.308,894.6 626.825,918.612C635.312,926.019 651.005,924.323 663.91,909.621C670.926,901.626 674.708,879.147 657.527,869.288Z" style="fill:none;stroke:black;stroke-width:4.48px;"/>
                </g>
            </g>
        </g>
    </g>
</svg>
