<?xml version="1.0" encoding="UTF-8" standalone="no"?>
<svg
   width="100%"
   height="100%"
   viewBox="0 0 81 119"
   version="1.1"
   xml:space="preserve"
   style="fill-rule:evenodd;clip-rule:evenodd;stroke-linejoin:round;stroke-miterlimit:2;"
   id="svg350"
   sodipodi:docname="rw.svg"
   inkscape:version="1.2.2 (b0a84865, 2022-12-01)"
   xmlns:inkscape="http://www.inkscape.org/namespaces/inkscape"
   xmlns:sodipodi="http://sodipodi.sourceforge.net/DTD/sodipodi-0.dtd"
   xmlns="http://www.w3.org/2000/svg"
   xmlns:svg="http://www.w3.org/2000/svg"><defs
   id="defs354" /><sodipodi:namedview
   id="namedview352"
   pagecolor="#ffffff"
   bordercolor="#000000"
   borderopacity="0.25"
   inkscape:showpageshadow="2"
   inkscape:pageopacity="0.0"
   inkscape:pagecheckerboard="0"
   inkscape:deskcolor="#d1d1d1"
   showgrid="false"
   inkscape:zoom="3.5834685"
   inkscape:cx="4.7440071"
   inkscape:cy="57.067615"
   inkscape:window-width="1470"
   inkscape:window-height="891"
   inkscape:window-x="0"
   inkscape:window-y="37"
   inkscape:window-maximized="0"
   inkscape:current-layer="svg350" />
    <g
   transform="matrix(1,0,0,1,-1909,-141)"
   id="g348">
        <g
   id="PHONETICS">
            <g
   id="r">
                <path
   d="m 1981.88,254.403 c 2.58,0 4.68,-1.268 4.68,-4.67 0,-2.578 -2.1,-4.67 -4.68,-4.67 -2.57,0 -4.15,2.092 -4.15,4.67 0,2.577 1.58,4.67 4.15,4.67 z"
   id="path477" /><path
   d="m 1976.18,251.859 -2.1,-0.436 -61.58,-0.133 -2.66,0.645 v -4.405 l 2.64,0.794 61.51,0.133 2.12,-0.633 c 0.82,-2.699 3.33,-4.666 6.29,-4.666 3.63,0 6.58,2.946 6.58,6.575 0,4.817 -3.55,6.575 -6.58,6.575 -2.88,0 -5.34,-1.862 -6.22,-4.449 z"
   id="path475" /><path
   d="m 1965.58,183.184 -2.47,-0.512 h -21.09 l -2.66,0.645 v 22.334 l -4.29,0.07 1.17,-4.934 0.04,-42.616 -2.43,-0.002 v -2.346 h 7.32 l -0.43,2.372 -1.38,0.042 v 20.676 l 2.63,0.793 h 21.03 l 2.56,-0.764 V 152.71 c 0,-2.911 1.16,-5.704 3.22,-7.762 2.05,-2.059 4.84,-3.215 7.76,-3.215 h 0.02 c 6.06,0 10.98,4.914 10.98,10.977 v 78.979 l 1.42,5.106 -3.72,-10e-4 v -82.508 c 0,-4.796 -3.88,-8.684 -8.68,-8.684 h -0.02 c -4.8,0 -8.69,3.888 -8.69,8.684 v 40.592 c 0,16.732 -5.7,41.916 -28.41,41.916 -22.7,0 -29.62,-25.316 -29.62,-41.914 v -53.148 h 2.29 c 0,0 0,2.886 0,51.81 0,17.602 6.3,40.637 27.23,40.637 20.93,0 26.22,-22.884 26.22,-40.637 z"
   id="path344" />
            </g>
        </g>
    </g>
</svg>
