<?xml version="1.0" encoding="UTF-8" standalone="no"?>
<!DOCTYPE svg PUBLIC "-//W3C//DTD SVG 1.1//EN" "http://www.w3.org/Graphics/SVG/1.1/DTD/svg11.dtd">
<svg width="100%" height="100%" viewBox="0 0 236 355" version="1.1" xmlns="http://www.w3.org/2000/svg" xmlns:xlink="http://www.w3.org/1999/xlink" xml:space="preserve" xmlns:serif="http://www.serif.com/" style="fill-rule:evenodd;clip-rule:evenodd;stroke-linecap:round;stroke-linejoin:round;stroke-miterlimit:1.5;">
    <g transform="matrix(1,0,0,1,0,-391)">
        <g transform="matrix(9.84616,0,0,9.88392,-44725.5,-48546)">
            <rect id="te" x="4542.43" y="4951.22" width="23.958" height="35.81" style="fill:none;"/>
            <g id="te1" serif:id="te">
                <g transform="matrix(0.143083,0,0,0.147154,4534.09,4949.8)">
                    <path d="M203.731,18.067C206.169,19.811 215.906,35.483 216.884,40.599C218.68,49.993 221.252,63.014 213.225,65.131C186.195,72.261 192.8,14.71 163.809,16.318C151.941,16.976 158.597,35.158 159.394,38.345C163.27,53.849 199.482,101.9 212.169,126.494C219.081,139.891 220.133,145.248 217.61,176.764C216.119,195.384 207.223,218.203 190.737,231.783C164.467,253.423 122.807,244.356 104.041,235.094C73.324,219.934 64.592,188.408 63.48,176.438C61.936,159.808 68.731,131.804 82.295,117.01C91.951,106.48 112.053,98.861 134.563,97.281C176.366,94.346 218.124,142.54 218.124,143.25" style="fill:none;stroke:black;stroke-width:4.37px;"/>
                </g>
                <g transform="matrix(0.132183,0,0,0.131678,4541.18,4948.48)">
                    <path d="M15.815,29.317C17.014,30.517 12.978,80.099 16.757,81.989C18.189,82.705 68.923,82.77 69.088,82.603C71.272,80.381 71.88,30.235 70.65,29.006C69.702,28.058 28.45,29.317 15.815,29.317Z" style="fill:none;stroke:black;stroke-width:4.8px;"/>
                </g>
                <g transform="matrix(0.101562,0,0,0.101174,4542.43,4951.22)">
                    <path d="M76.859,10.163C76.859,12.838 51.358,43.037 50.411,43.037" style="fill:none;stroke:black;stroke-width:6.25px;"/>
                </g>
            </g>
        </g>
    </g>
</svg>
